# xmcd
#
# Track frame offsets:
#	150
#	15616
#	28242
#	44457
#	59725
#	76482
#	94499
#	109734
#	127252
#	142002
#	157683
#	171743
#	186163
#	203008
#	218704
#	234126
#	248583
#	268888
#	286304
#
# Disc length: 3970 seconds
#
# Revision: 1
# Processed by: cddbd v1.5.2PL0 Copyright (c) Steve Scherf et al.
# Submitted via: audiograbber 1.83.01
#
DISCID=1d0f8013
DTITLE=Lasse Stefanz - Rö Chevrolet
DYEAR=2010
DGENRE=Dansband
TTITLE0=En bättre värld
TTITLE1=Wait a minute
TTITLE2=Olivia
TTITLE3=Min röda Chevrolet
TTITLE4=Ingen väg tillbaka
TTITLE5=Hon tror hon vet
TTITLE6=Lyckan inom räckhåll
TTITLE7=Gula höstlöv
TTITLE8=Jag ångrar ingenting
TTITLE9=Forever, someday
TTITLE10=Tag vad du behöver
TTITLE11=Längtan till havet
TTITLE12=Det regnar och regnar
TTITLE13=En tid av stulen lycka
TTITLE14=Dom spelar vår sång
TTITLE15=En blomma bland asfalt
TTITLE16=En gåva från himlen
TTITLE17=Flickan från Karplan
TTITLE18=Oh Julie
EXTD=
EXTT0=
EXTT1=
EXTT2=
EXTT3=
EXTT4=
EXTT5=
EXTT6=
EXTT7=
EXTT8=
EXTT9=
EXTT10=
EXTT11=
EXTT12=
EXTT13=
EXTT14=
EXTT15=
EXTT16=
EXTT17=
EXTT18=
PLAYORDER=
